<svg xmlns="http://www.w3.org/2000/svg" width="1200" height="900">
  <!-- Pixel art star background: dots, crosses, and sparkles -->

  <!-- ── Large sparkles (2×6 + 6×2) ── -->
  <rect x="203" y="9"  width="2" height="6" fill="white" opacity="0.70"/>
  <rect x="201" y="11" width="6" height="2" fill="white" opacity="0.70"/>
  <rect x="634" y="12" width="2" height="6" fill="white" opacity="0.75"/>
  <rect x="632" y="14" width="6" height="2" fill="white" opacity="0.75"/>
  <rect x="302" y="217" width="2" height="6" fill="white" opacity="0.65"/>
  <rect x="300" y="219" width="6" height="2" fill="white" opacity="0.65"/>
  <rect x="745" y="156" width="2" height="6" fill="white" opacity="0.60"/>
  <rect x="743" y="158" width="6" height="2" fill="white" opacity="0.60"/>
  <rect x="496" y="346" width="2" height="6" fill="white" opacity="0.55"/>
  <rect x="494" y="348" width="6" height="2" fill="white" opacity="0.55"/>
  <rect x="315" y="510" width="2" height="6" fill="white" opacity="0.65"/>
  <rect x="313" y="512" width="6" height="2" fill="white" opacity="0.65"/>
  <rect x="262" y="599" width="2" height="6" fill="white" opacity="0.70"/>
  <rect x="260" y="601" width="6" height="2" fill="white" opacity="0.70"/>
  <rect x="552" y="719" width="2" height="6" fill="white" opacity="0.65"/>
  <rect x="550" y="721" width="6" height="2" fill="white" opacity="0.65"/>
  <rect x="928" y="816" width="2" height="6" fill="white" opacity="0.55"/>
  <rect x="926" y="818" width="6" height="2" fill="white" opacity="0.55"/>
  <rect x="127" y="739" width="2" height="6" fill="white" opacity="0.60"/>
  <rect x="125" y="741" width="6" height="2" fill="white" opacity="0.60"/>

  <!-- ── Small crosses (1×3 + 3×1) ── -->
  <rect x="458" y="81" width="1" height="3" fill="white" opacity="0.55"/>
  <rect x="457" y="82" width="3" height="1" fill="white" opacity="0.55"/>
  <rect x="701" y="57" width="1" height="3" fill="white" opacity="0.40"/>
  <rect x="700" y="58" width="3" height="1" fill="white" opacity="0.40"/>
  <rect x="856" y="72" width="1" height="3" fill="white" opacity="0.45"/>
  <rect x="855" y="73" width="3" height="1" fill="white" opacity="0.45"/>
  <rect x="1089" y="18" width="1" height="3" fill="white" opacity="0.50"/>
  <rect x="1088" y="19" width="3" height="1" fill="white" opacity="0.50"/>
  <rect x="344" y="130" width="1" height="3" fill="white" opacity="0.48"/>
  <rect x="343" y="131" width="3" height="1" fill="white" opacity="0.48"/>
  <rect x="914" y="148" width="1" height="3" fill="white" opacity="0.44"/>
  <rect x="913" y="149" width="3" height="1" fill="white" opacity="0.44"/>
  <rect x="119" y="207" width="1" height="3" fill="white" opacity="0.50"/>
  <rect x="118" y="208" width="3" height="1" fill="white" opacity="0.50"/>
  <rect x="463" y="212" width="1" height="3" fill="white" opacity="0.46"/>
  <rect x="462" y="213" width="3" height="1" fill="white" opacity="0.46"/>
  <rect x="718" y="246" width="1" height="3" fill="white" opacity="0.36"/>
  <rect x="717" y="247" width="3" height="1" fill="white" opacity="0.36"/>
  <rect x="64"  y="317" width="1" height="3" fill="white" opacity="0.44"/>
  <rect x="63"  y="318" width="3" height="1" fill="white" opacity="0.44"/>
  <rect x="328" y="334" width="1" height="3" fill="white" opacity="0.38"/>
  <rect x="327" y="335" width="3" height="1" fill="white" opacity="0.38"/>
  <rect x="904" y="314" width="1" height="3" fill="white" opacity="0.46"/>
  <rect x="903" y="315" width="3" height="1" fill="white" opacity="0.46"/>
  <rect x="276" y="433" width="1" height="3" fill="white" opacity="0.44"/>
  <rect x="275" y="434" width="3" height="1" fill="white" opacity="0.44"/>
  <rect x="531" y="422" width="1" height="3" fill="white" opacity="0.38"/>
  <rect x="530" y="423" width="3" height="1" fill="white" opacity="0.38"/>
  <rect x="1097" y="442" width="1" height="3" fill="white" opacity="0.36"/>
  <rect x="1096" y="443" width="3" height="1" fill="white" opacity="0.36"/>
  <rect x="141" y="507" width="1" height="3" fill="white" opacity="0.50"/>
  <rect x="140" y="508" width="3" height="1" fill="white" opacity="0.50"/>
  <rect x="484" y="518" width="1" height="3" fill="white" opacity="0.44"/>
  <rect x="483" y="519" width="3" height="1" fill="white" opacity="0.44"/>
  <rect x="688" y="636" width="1" height="3" fill="white" opacity="0.44"/>
  <rect x="687" y="637" width="3" height="1" fill="white" opacity="0.44"/>
  <rect x="1024" y="638" width="1" height="3" fill="white" opacity="0.55"/>
  <rect x="1023" y="639" width="3" height="1" fill="white" opacity="0.55"/>
  <rect x="244"  y="816" width="1" height="3" fill="white" opacity="0.36"/>
  <rect x="243"  y="817" width="3" height="1" fill="white" opacity="0.36"/>
  <rect x="501"  y="842" width="1" height="3" fill="white" opacity="0.44"/>
  <rect x="500"  y="843" width="3" height="1" fill="white" opacity="0.44"/>

  <!-- ── Simple 2×2 pixel dots ── -->
  <rect x="47"  y="23"  width="2" height="2" fill="white" opacity="0.50"/>
  <rect x="134" y="67"  width="2" height="2" fill="white" opacity="0.35"/>
  <rect x="289" y="44"  width="2" height="2" fill="white" opacity="0.40"/>
  <rect x="371" y="19"  width="2" height="2" fill="white" opacity="0.30"/>
  <rect x="512" y="31"  width="2" height="2" fill="white" opacity="0.35"/>
  <rect x="789" y="27"  width="2" height="2" fill="white" opacity="0.30"/>
  <rect x="923" y="8"   width="2" height="2" fill="white" opacity="0.60"/>
  <rect x="1011" y="41" width="2" height="2" fill="white" opacity="0.35"/>
  <rect x="1156" y="64" width="2" height="2" fill="white" opacity="0.38"/>
  <rect x="78"  y="142" width="2" height="2" fill="white" opacity="0.40"/>
  <rect x="167" y="118" width="2" height="2" fill="white" opacity="0.60"/>
  <rect x="251" y="155" width="2" height="2" fill="white" opacity="0.30"/>
  <rect x="419" y="163" width="2" height="2" fill="white" opacity="0.32"/>
  <rect x="503" y="109" width="2" height="2" fill="white" opacity="0.65"/>
  <rect x="588" y="147" width="2" height="2" fill="white" opacity="0.38"/>
  <rect x="672" y="121" width="2" height="2" fill="white" opacity="0.28"/>
  <rect x="831" y="112" width="2" height="2" fill="white" opacity="0.33"/>
  <rect x="998" y="126" width="2" height="2" fill="white" opacity="0.58"/>
  <rect x="1072" y="161" width="2" height="2" fill="white" opacity="0.30"/>
  <rect x="1143" y="138" width="2" height="2" fill="white" opacity="0.42"/>
  <rect x="31"  y="231" width="2" height="2" fill="white" opacity="0.28"/>
  <rect x="214" y="244" width="2" height="2" fill="white" opacity="0.38"/>
  <rect x="387" y="252" width="2" height="2" fill="white" opacity="0.30"/>
  <rect x="549" y="238" width="2" height="2" fill="white" opacity="0.32"/>
  <rect x="621" y="201" width="2" height="2" fill="white" opacity="0.60"/>
  <rect x="793" y="222" width="2" height="2" fill="white" opacity="0.28"/>
  <rect x="961" y="209" width="2" height="2" fill="white" opacity="0.34"/>
  <rect x="1038" y="241" width="2" height="2" fill="white" opacity="0.44"/>
  <rect x="1121" y="217" width="2" height="2" fill="white" opacity="0.62"/>
  <rect x="153" y="341" width="2" height="2" fill="white" opacity="0.30"/>
  <rect x="237" y="307" width="2" height="2" fill="white" opacity="0.58"/>
  <rect x="411" y="312" width="2" height="2" fill="white" opacity="0.28"/>
  <rect x="572" y="321" width="2" height="2" fill="white" opacity="0.32"/>
  <rect x="658" y="344" width="2" height="2" fill="white" opacity="0.66"/>
  <rect x="734" y="309" width="2" height="2" fill="white" opacity="0.40"/>
  <rect x="819" y="337" width="2" height="2" fill="white" opacity="0.28"/>
  <rect x="987" y="350" width="2" height="2" fill="white" opacity="0.30"/>
  <rect x="1054" y="326" width="2" height="2" fill="white" opacity="0.60"/>
  <rect x="1138" y="342" width="2" height="2" fill="white" opacity="0.36"/>
  <rect x="22"  y="421" width="2" height="2" fill="white" opacity="0.38"/>
  <rect x="191" y="408" width="2" height="2" fill="white" opacity="0.28"/>
  <rect x="362" y="412" width="2" height="2" fill="white" opacity="0.30"/>
  <rect x="445" y="449" width="2" height="2" fill="white" opacity="0.64"/>
  <rect x="614" y="445" width="2" height="2" fill="white" opacity="0.26"/>
  <rect x="774" y="441" width="2" height="2" fill="white" opacity="0.30"/>
  <rect x="859" y="419" width="2" height="2" fill="white" opacity="0.44"/>
  <rect x="942" y="452" width="2" height="2" fill="white" opacity="0.58"/>
  <rect x="1018" y="427" width="2" height="2" fill="white" opacity="0.30"/>
  <rect x="1171" y="411" width="2" height="2" fill="white" opacity="0.42"/>
  <rect x="55"  y="524" width="2" height="2" fill="white" opacity="0.28"/>
  <rect x="229" y="537" width="2" height="2" fill="white" opacity="0.36"/>
  <rect x="399" y="541" width="2" height="2" fill="white" opacity="0.28"/>
  <rect x="568" y="534" width="2" height="2" fill="white" opacity="0.30"/>
  <rect x="653" y="506" width="2" height="2" fill="white" opacity="0.64"/>
  <rect x="737" y="528" width="2" height="2" fill="white" opacity="0.38"/>
  <rect x="822" y="513" width="2" height="2" fill="white" opacity="0.26"/>
  <rect x="991" y="517" width="2" height="2" fill="white" opacity="0.30"/>
  <rect x="1063" y="532" width="2" height="2" fill="white" opacity="0.44"/>
  <rect x="1148" y="509" width="2" height="2" fill="white" opacity="0.58"/>
  <rect x="89"  y="613" width="2" height="2" fill="white" opacity="0.44"/>
  <rect x="178" y="638" width="2" height="2" fill="white" opacity="0.28"/>
  <rect x="349" y="625" width="2" height="2" fill="white" opacity="0.36"/>
  <rect x="434" y="608" width="2" height="2" fill="white" opacity="0.28"/>
  <rect x="519" y="641" width="2" height="2" fill="white" opacity="0.50"/>
  <rect x="603" y="619" width="2" height="2" fill="white" opacity="0.30"/>
  <rect x="771" y="604" width="2" height="2" fill="white" opacity="0.58"/>
  <rect x="855" y="628" width="2" height="2" fill="white" opacity="0.28"/>
  <rect x="939" y="614" width="2" height="2" fill="white" opacity="0.38"/>
  <rect x="1108" y="617" width="2" height="2" fill="white" opacity="0.28"/>
  <rect x="1183" y="632" width="2" height="2" fill="white" opacity="0.42"/>
  <rect x="43"  y="718" width="2" height="2" fill="white" opacity="0.28"/>
  <rect x="212" y="707" width="2" height="2" fill="white" opacity="0.36"/>
  <rect x="298" y="729" width="2" height="2" fill="white" opacity="0.26"/>
  <rect x="383" y="714" width="2" height="2" fill="white" opacity="0.48"/>
  <rect x="467" y="742" width="2" height="2" fill="white" opacity="0.28"/>
  <rect x="636" y="738" width="2" height="2" fill="white" opacity="0.36"/>
  <rect x="721" y="709" width="2" height="2" fill="white" opacity="0.26"/>
  <rect x="806" y="731" width="2" height="2" fill="white" opacity="0.44"/>
  <rect x="890" y="716" width="2" height="2" fill="white" opacity="0.28"/>
  <rect x="975" y="743" width="2" height="2" fill="white" opacity="0.56"/>
  <rect x="1059" y="722" width="2" height="2" fill="white" opacity="0.34"/>
  <rect x="1144" y="737" width="2" height="2" fill="white" opacity="0.28"/>
  <rect x="74"  y="812" width="2" height="2" fill="white" opacity="0.48"/>
  <rect x="159" y="838" width="2" height="2" fill="white" opacity="0.28"/>
  <rect x="416" y="819" width="2" height="2" fill="white" opacity="0.26"/>
  <rect x="587" y="824" width="2" height="2" fill="white" opacity="0.28"/>
  <rect x="672" y="839" width="2" height="2" fill="white" opacity="0.60"/>
  <rect x="758" y="811" width="2" height="2" fill="white" opacity="0.34"/>
  <rect x="843" y="836" width="2" height="2" fill="white" opacity="0.26"/>
  <rect x="1013" y="842" width="2" height="2" fill="white" opacity="0.28"/>
  <rect x="1098" y="827" width="2" height="2" fill="white" opacity="0.42"/>
  <rect x="1174" y="843" width="2" height="2" fill="white" opacity="0.36"/>
</svg>
